<svg width="1178" height="512" viewBox="0 0 1178 512" fill="none" xmlns="http://www.w3.org/2000/svg">
<rect width="1178" height="512" fill="#E5E5E5"/>
<path d="M0 0C530 49 418 179 782 182C1073.2 184.4 1167.33 298 1178 302V402L461 512L0 402V0Z" fill="#2F80ED"/>
<path d="M0 0C530 49 418 179 782 182C1073.2 184.4 1167.33 298 1178 302V402L461 512L0 402V0Z" fill="url(#paint0_linear)" style="mix-blend-mode:lighten"/>
<path d="M0 0C530 49 418 179 782 182C1073.2 184.4 1167.33 298 1178 302V402L461 512L0 402V0Z" stroke="black"/>
<defs>
<linearGradient id="paint0_linear" x1="589" y1="0" x2="589" y2="402" gradientUnits="userSpaceOnUse">
<stop stop-color="white"/>
<stop offset="0.972637" stop-color="white" stop-opacity="0"/>
</linearGradient>
</defs>
</svg>
