<svg width="1178" height="402" viewBox="0 0 1178 402" fill="none" xmlns="http://www.w3.org/2000/svg">
<path d="M0 0C530 49 411 70 775 73C1066.2 75.4 1170 5 1178 0V402H458H0V0Z" fill="#2F80ED"/>
<path d="M0 0C530 49 411 70 775 73C1066.2 75.4 1170 5 1178 0V402H458H0V0Z" fill="url(#paint0_linear)"/>
<path d="M0 0C530 49 411 70 775 73C1066.2 75.4 1170 5 1178 0V402H458H0V0Z" fill="url(#paint1_linear)"/>
<path d="M0 0C530 49 411 70 775 73C1066.2 75.4 1170 5 1178 0V402H458H0V0Z"/>
<defs>
<linearGradient id="paint0_linear" x1="589" y1="0" x2="589" y2="512" gradientUnits="userSpaceOnUse">
<stop stop-color="#2F80ED"/>
<stop offset="1" stop-color="#2F80ED"/>
</linearGradient>
<linearGradient id="paint1_linear" x1="589" y1="0" x2="589" y2="512" gradientUnits="userSpaceOnUse">
<stop stop-color="#2F80ED"/>
<stop offset="1" stop-color="white" stop-opacity="0"/>
</linearGradient>
</defs>
</svg>
